<svg width="19" height="19" viewBox="0 0 19 19" fill="none" xmlns="http://www.w3.org/2000/svg">
<path id="Ellipse 1735" d="M7.90179 0.331619C5.66587 0.666119 3.63774 1.82987 2.2207 3.59146C0.803651 5.35305 0.101497 7.58343 0.253857 9.83909C0.406218 12.0948 1.40193 14.2105 3.043 15.7655C4.68407 17.3205 6.85027 18.2009 9.11086 18.2317C11.3715 18.2625 13.5608 17.4414 15.2436 15.9316C16.9264 14.4218 17.9794 12.334 18.1931 10.0834C18.4068 7.83268 17.7656 5.58401 16.3971 3.78449C15.0285 1.98497 13.0328 0.766428 10.8069 0.371175L9.85162 5.75084C10.7262 5.90614 11.5104 6.38492 12.0481 7.09196C12.5858 7.79901 12.8377 8.68254 12.7537 9.56685C12.6698 10.4512 12.2561 11.2715 11.5949 11.8647C10.9337 12.4579 10.0735 12.7805 9.18525 12.7684C8.29704 12.7563 7.44592 12.4104 6.80113 11.7994C6.15634 11.1884 5.76511 10.3571 5.70525 9.47087C5.64539 8.5846 5.92127 7.70827 6.47804 7.01612C7.03481 6.32398 7.83168 5.86673 8.71019 5.7353L7.90179 0.331619Z" fill="#6843CF"/>
</svg>
